<svg xmlns="http://www.w3.org/2000/svg" viewBox="0 0 64 64" width="64" height="64">
  <defs>
    <linearGradient id="g" x1="0" y1="0" x2="1" y2="1">
      <stop offset="0" stop-color="#3b82f6"/>
      <stop offset="1" stop-color="#8b5cf6"/>
    </linearGradient>
  </defs>
  <rect width="64" height="64" rx="14" fill="#0b0f17"/>
  <g stroke="url(#g)" stroke-width="2.6" stroke-linecap="round">
    <line x1="24" y1="9" x2="24" y2="17"/><line x1="32" y1="9" x2="32" y2="17"/><line x1="40" y1="9" x2="40" y2="17"/>
    <line x1="24" y1="47" x2="24" y2="55"/><line x1="32" y1="47" x2="32" y2="55"/><line x1="40" y1="47" x2="40" y2="55"/>
    <line x1="9" y1="24" x2="17" y2="24"/><line x1="9" y1="32" x2="17" y2="32"/><line x1="9" y1="40" x2="17" y2="40"/>
    <line x1="47" y1="24" x2="55" y2="24"/><line x1="47" y1="32" x2="55" y2="32"/><line x1="47" y1="40" x2="55" y2="40"/>
  </g>
  <rect x="17" y="17" width="30" height="30" rx="8" fill="url(#g)"/>
  <path d="M25 40 V25 l7 6 7-6 V40" fill="none" stroke="#fff" stroke-width="3" stroke-linecap="round" stroke-linejoin="round"/>
</svg>
